<svg xmlns="http://www.w3.org/2000/svg" width="16" height="16" viewBox="0 0 16 16"><defs><style>.a{fill:none;}.b{fill:#333;}</style></defs><g transform="translate(16) rotate(90)"><rect class="a" width="16" height="16" transform="translate(0 0)"/><path class="b" d="M5.991,0a.805.805,0,0,0-.548.219L.309,4.974A1.026,1.026,0,0,0,.2,6.315.8.8,0,0,0,1.4,6.439L5.991,2.179l4.586,4.107a.8.8,0,0,0,.63.207.836.836,0,0,0,.577-.35A1.02,1.02,0,0,0,12,5.421a.981.981,0,0,0-.333-.665L6.53.164A.793.793,0,0,0,5.991,0Z" transform="translate(2 4.675)"/></g></svg>