<svg xmlns="http://www.w3.org/2000/svg" width="16" height="16" viewBox="0 0 16 16"><defs><style>.a{fill:none;}.b{fill:#333;}</style></defs><g transform="translate(-1437 -75)"><rect class="a" width="16" height="16" transform="translate(1437 75)"/><path class="b" d="M13.489,20.154a.805.805,0,0,1-.548-.219L7.807,15.182A1.026,1.026,0,0,1,7.7,13.842.8.8,0,0,1,8.9,13.718l4.586,4.259,4.586-4.107a.8.8,0,0,1,.63-.207.836.836,0,0,1,.577.35,1.02,1.02,0,0,1,.213.723.981.981,0,0,1-.333.665l-5.134,4.592A.793.793,0,0,1,13.489,20.154Z" transform="translate(1431.502 66.169)"/></g></svg>