<svg xmlns="http://www.w3.org/2000/svg" width="24" height="24" viewBox="0 0 24 24"><defs><style>.a{fill:none;}.b{fill:#fff;}</style></defs><g transform="translate(-956 -593)"><rect class="a" width="24" height="24" transform="translate(956 593)"/><path class="b" d="M20,15.8a4.688,4.688,0,0,1-.142,1,5.645,5.645,0,0,1-.3.973,3.808,3.808,0,0,1-1.733,1.506,5.266,5.266,0,0,1-3.388.675,6.142,6.142,0,0,1-.817-.178q-.455-.128-.675-.206t-.788-.291q-.568-.213-.7-.256a12.866,12.866,0,0,1-2.486-1.179A21.072,21.072,0,0,1,5.22,14.78a21.072,21.072,0,0,1-3.061-3.757A12.866,12.866,0,0,1,.98,8.537q-.043-.128-.256-.7T.433,7.053q-.078-.22-.206-.675A6.138,6.138,0,0,1,.05,5.561,5.472,5.472,0,0,1,0,4.815,5.508,5.508,0,0,1,.724,2.173,3.809,3.809,0,0,1,2.23.44,5.643,5.643,0,0,1,3.2.142,4.688,4.688,0,0,1,4.2,0a.8.8,0,0,1,.3.043q.256.085.753,1.08.156.27.426.767t.5.9q.227.4.44.76.043.057.249.355a3.969,3.969,0,0,1,.305.5.926.926,0,0,1,.1.4,1.179,1.179,0,0,1-.4.71,6.923,6.923,0,0,1-.881.781,8.552,8.552,0,0,0-.881.753,1.082,1.082,0,0,0-.4.653.96.96,0,0,0,.071.32,3.1,3.1,0,0,0,.121.291q.05.1.2.341t.163.27a14.91,14.91,0,0,0,2.472,3.338,14.91,14.91,0,0,0,3.338,2.472q.028.014.27.163t.341.2a3.1,3.1,0,0,0,.291.121.959.959,0,0,0,.32.071,1.082,1.082,0,0,0,.653-.4,8.554,8.554,0,0,0,.753-.881,6.922,6.922,0,0,1,.781-.881,1.179,1.179,0,0,1,.71-.4.927.927,0,0,1,.4.1,3.967,3.967,0,0,1,.5.305q.3.206.355.249.355.213.76.44t.9.5q.5.27.767.426.994.5,1.08.753a.8.8,0,0,1,.043.3Zm0,0" transform="translate(958 595)"/></g></svg>