<svg xmlns="http://www.w3.org/2000/svg" xmlns:xlink="http://www.w3.org/1999/xlink" width="18" height="18" viewBox="0 0 18 18"><defs><style>.a,.b{fill:#333;}.b{opacity:0;}.c{clip-path:url(#a);}.d{fill:none;}</style><clipPath id="a"><rect class="a" width="18" height="18"/></clipPath></defs><rect class="b" width="18" height="18"/><g class="c"><rect class="d" width="18" height="18"/><path class="a" d="M9.563,15.75H3.609a.55.55,0,0,1-.193-.035H3.342v-.033a.576.576,0,0,1-.13-.1L.165,12.539a.561.561,0,0,1-.165-.4V2.813A.563.563,0,0,1,.562,2.25h9a.563.563,0,0,1,.562.563V15.188A.563.563,0,0,1,9.563,15.75ZM1.266,3.515v7.77h2.5a.7.7,0,0,1,.7.7v2.5H8.859V3.515Zm.561,8.894L3.34,13.925V12.41ZM12.234,13.5H11.25a.141.141,0,0,1-.141-.14V1.266H2.391a.141.141,0,0,1-.141-.14V.14A.141.141,0,0,1,2.391,0h9.422a.563.563,0,0,1,.562.562v12.8A.141.141,0,0,1,12.234,13.5Z" transform="translate(2.813 1.125)"/></g></svg>