<svg xmlns="http://www.w3.org/2000/svg" width="64" height="64" viewBox="0 0 64 64"><defs><style>.a{fill:#333;}.b{fill:#fff;}</style></defs><circle class="a" cx="32" cy="32" r="32"/><g transform="translate(13.5 13.5)"><path class="b" d="M37.681,25.055H39.9a1.761,1.761,0,0,1,1.752,1.752h2.8a4.568,4.568,0,0,0-4.278-4.547V19.8h-2.8v2.459a4.569,4.569,0,0,0,.3,9.128H39.9a1.752,1.752,0,1,1,0,3.5H37.681a1.761,1.761,0,0,1-1.752-1.752h-2.8a4.568,4.568,0,0,0,4.278,4.547v2.459h2.8V37.686a4.569,4.569,0,0,0-.3-9.128H37.681a1.761,1.761,0,0,1-1.752-1.752A1.74,1.74,0,0,1,37.681,25.055Z" transform="translate(-20.293 -11.473)"/><path class="b" d="M18.5,2.5a16,16,0,1,0,16,16A16.014,16.014,0,0,0,18.5,2.5ZM28.774,26.786,26.18,24.193,24.193,26.18l2.594,2.594a13.2,13.2,0,0,1-18.56-18.56l2.594,2.594,1.987-1.987L10.214,8.226a13.2,13.2,0,0,1,18.56,18.56Z"/></g></svg>