<svg xmlns="http://www.w3.org/2000/svg" width="24" height="24" viewBox="0 0 24 24"><defs><style>.a{fill:none;}.b{fill:#e6e6e6;fill-rule:evenodd;}</style></defs><g transform="translate(-623 -932)"><rect class="a" width="24" height="24" transform="translate(623 932)"/><g transform="translate(625 935)"><path class="b" d="M10,3.3l-.9-.884A4.8,4.8,0,0,0,1.75,3.663c-.654,1.228-.8,3,.393,5.262C3.293,11.1,5.686,13.712,10,16.553c4.315-2.842,6.706-5.451,7.858-7.628,1.194-2.263,1.047-4.035.393-5.262A4.8,4.8,0,0,0,10.9,2.412ZM10,18C-9.166,5.841,4.1-3.648,9.781,1.372c.075.066.149.134.22.205q.106-.106.22-.2C15.9-3.651,29.167,5.84,10,18Z" transform="translate(0 0)"/></g></g></svg>