<svg xmlns="http://www.w3.org/2000/svg" width="18" height="18" viewBox="0 0 18 18"><defs><style>.a{fill:none;}.b{fill:#333;fill-rule:evenodd;}</style></defs><g transform="translate(-591 414)"><rect class="a" width="18" height="18" transform="translate(591 -414)"/><g transform="translate(594 -412.5)"><path class="b" d="M5.625,0A5.669,5.669,0,0,1,11.25,5.713c0,3.714-2.4,6.906-5.16,9.121a.735.735,0,0,1-.929,0C2.4,12.619,0,9.427,0,5.713A5.669,5.669,0,0,1,5.625,0Zm0,3.112a2.6,2.6,0,1,1-2.561,2.6A2.581,2.581,0,0,1,5.625,3.112Z" transform="translate(0)"/></g></g></svg>