<svg xmlns="http://www.w3.org/2000/svg" width="33.451" height="42.225" viewBox="0 0 33.451 42.225"><defs><style>.a{fill:none;}.b{fill:#000f1e;opacity:0.5;}.c{fill:#ffc20e;stroke:#fff;fill-rule:evenodd;}</style></defs><g transform="translate(-1018.913 -816)"><rect class="a" width="32" height="32" transform="translate(1020 816)"/><ellipse class="b" cx="5.5" cy="3" rx="5.5" ry="3" transform="translate(1030.138 841)"/><path class="c" d="M18.7,15.377,12.619,24.8a2.073,2.073,0,0,1-3.764,0L2.684,15.25a.744.744,0,0,0-.052-.075l-.049-.085c-.02-.023-.02-.059-.036-.078a9.753,9.753,0,1,1,16.157.364Zm-7.953-8.87A3.253,3.253,0,1,0,14,9.76a3.254,3.254,0,0,0-3.25-3.253Z" transform="translate(1025 819)"/></g></svg>