<svg xmlns="http://www.w3.org/2000/svg" width="12.023" height="20" viewBox="0 0 12.023 20"><defs><style>.a{fill:#fff;}</style></defs><g transform="translate(-89.856)"><g transform="translate(89.856)"><path class="a" d="M99.379,0H92.356a2.493,2.493,0,0,0-2.5,2.5v15a2.507,2.507,0,0,0,2.5,2.5h7.023a2.493,2.493,0,0,0,2.5-2.5V2.5A2.493,2.493,0,0,0,99.379,0Zm-3.5,18.386a1.136,1.136,0,1,1,1.136-1.136A1.125,1.125,0,0,1,95.879,18.386Zm4.864-3.477h-9.75V3.341h9.75Z" transform="translate(-89.856)"/></g></g></svg>