<svg xmlns="http://www.w3.org/2000/svg" width="18" height="18" viewBox="0 0 18 18"><defs><style>.a{fill:none;}.b{fill:#fff;}</style></defs><g transform="translate(-958)"><rect class="a" width="18" height="18" transform="translate(958)"/><path class="b" d="M35.8,34.722,33,31.948a6.765,6.765,0,0,0-.5-8.973,6.743,6.743,0,0,0-9.523,9.548,6.739,6.739,0,0,0,8.973.5L34.722,35.8a.719.719,0,0,0,.525.225.681.681,0,0,0,.525-.225A.778.778,0,0,0,35.8,34.722ZM33,27.749a5.14,5.14,0,0,1-1.55,3.7,5.287,5.287,0,0,1-3.7,1.55,5.14,5.14,0,0,1-3.7-1.55,5.287,5.287,0,0,1-1.55-3.7,5.139,5.139,0,0,1,1.55-3.7,5.242,5.242,0,0,1,3.7-1.55,5.14,5.14,0,0,1,3.7,1.55A5.242,5.242,0,0,1,33,27.749Z" transform="translate(938.5 -19.5)"/></g></svg>