<svg xmlns="http://www.w3.org/2000/svg" width="24" height="24" viewBox="0 0 24 24"><defs><style>.a{fill:none;}.b{fill:#333;}</style></defs><g transform="translate(-28 -761)"><rect class="a" width="24" height="24" transform="translate(28 761)"/><path class="b" d="M353.765,655.668a8.461,8.461,0,0,0-6.708,13.62,5.813,5.813,0,0,1,1.973-1.105c.148-.054.3-.107.488-.171l.453-.153c.887-.3,1.2-.5,1.277-.767a.253.253,0,0,1,.008-.033.793.793,0,0,0-.06-.533.945.945,0,0,0-.243-.278,4.369,4.369,0,1,1,5.572.03.7.7,0,0,0-.2.261.951.951,0,0,0-.043.541.3.3,0,0,0,.013.056c.079.26.418.466,1.376.789l.394.132c.162.054.291.1.418.144a5.789,5.789,0,0,1,1.988,1.088,8.461,8.461,0,0,0-6.707-13.62Zm0,4.1a2.874,2.874,0,0,0-2.821,2.991,2.92,2.92,0,0,0,1.027,2.333,2.348,2.348,0,0,1,.586.712,2.281,2.281,0,0,1,.2,1.577,1.127,1.127,0,0,1-.047.175c-.242.9-.869,1.286-2.243,1.755l-.457.154c-.178.06-.317.109-.449.158a4.4,4.4,0,0,0-1.458.792,8.46,8.46,0,0,0,11.317,0,4.38,4.38,0,0,0-1.46-.773c-.114-.041-.234-.083-.387-.135l-.4-.132c-1.431-.482-2.076-.873-2.353-1.787a2.018,2.018,0,0,1-.056-.23,2.432,2.432,0,0,1,.141-1.432,2.193,2.193,0,0,1,.6-.817,3.039,3.039,0,0,0-1.751-5.346Zm0-5.641a10,10,0,1,1-10,10A10,10,0,0,1,353.765,654.129Z" transform="translate(-313.765 108.871)"/></g></svg>